<?xml version="1.0" encoding="UTF-8"?>
<svg id="Layer_2" data-name="Layer 2" xmlns="http://www.w3.org/2000/svg" viewBox="0 0 50.3 42.5">
  <defs>
    <style>
      .cls-1 {
        fill: #231f20;
        stroke: #231f20;
        stroke-miterlimit: 10;
        stroke-width: .2px;
      }
    </style>
  </defs>
  <g id="Layer_1-2" data-name="Layer 1">
    <polygon class="cls-1" points="25.9 42.4 26.2 .8 29.9 .1 29.6 42.4 25.9 42.4"/>
    <path class="cls-1" d="M41.8,28.6l1.8,2.5c-2.4,1.7-5.1,2.9-9.1,2.7-2.3.1-4.5,0-6.5-.8-3.3-2.5-6.7-4.8-10.9-5-2.8,0-5.4.5-7.6,2l1.3,3.4L.2,31.7l6.4-8.4,1.7,3.8c2.6-1.7,5.6-2.8,9.1-2.4,4.1.1,7.8,1.9,11.2,5.4,5.8,1.2,10.2.7,13.3-1.4Z"/>
    <path class="cls-1" d="M4.5,13.3l2.1,2.2c3.1-2.1,6.6-3.9,10.8-4,2.5-.4,6.3,2.5,11.5,5.4,5.9,1.4,11,.8,15.1-2l2.1,3.2,4.1-9.5-10.2.3,2,2.7c.2.8,0,1.2-.5,1.5-4.8,2.2-9.5,1.2-14.2-.4-2.5-3.1-6-4.3-10.1-4.2-4.9-.2-9,1.8-12.5,5Z"/>
  </g>
</svg>