<?xml version="1.0" encoding="UTF-8"?>
<svg id="Layer_2" data-name="Layer 2" xmlns="http://www.w3.org/2000/svg" viewBox="0 0 46.6 50">
  <defs>
    <style>
      .cls-1 {
        fill: #231f20;
      }
    </style>
  </defs>
  <g id="Layer_1-2" data-name="Layer 1">
    <g>
      <g>
        <path class="cls-1" d="M18.8,49.9c-.5-.6.1-1.9.9-3.2.3-.9.3-1.9.3-3.2-.3,0-.6-.1-1.1-.1-.9,0-1.9.1-2.5.2l-.3.2c-.8.6-1.3.9-1.6.9h-.1c0-.3.6-1.4,1.4-2.3l-7.8.2.5-1.9h.3c1.6,0,2.6-.3,3.2-.9.9,0,1.7-.2,2.5-.2h.2c.3-1.1.2-1.8-.4-2.2,0-.7.1-1.5.5-1.5s.1,0,.2,0c2.6,2.1,4.4,3.2,5.7,3.2s.6,0,.8-.2c3-1.7,5.2-3.1,6.9-4.4-.5,1.3-1,2.6-1.1,3.5h.4c1,0,2,.2,2.9.3.7,0,1.4.2,2,.2s.3,0,.5,0l.5,1.3c-2.4.1-4.6.4-6.7.8-.3.5-.5,1.6-.3,2.6-.9-.4-1.7-.6-2.4-.6s-1.7.3-2.4.9v.2c-.6,1.2-1.1,2.6-1.4,3.9-.5,1.4-1,2.1-1.5,2.2Z"/>
        <path class="cls-1" d="M28.2,34.8c-.4,1.2-.8,2.4-1,3.3,0,0,0,0,0,0,0,0,0,0,0,0s0,0,0,0c.1,0,.2,0,.3,0,1,0,2,.1,2.8.2.7,0,1.4.2,2,.2s.3,0,.4,0l.5,1.2c-2.4.2-4.6.5-6.6.9,0,0,0,0,0,0-.2.4-.5,1.5-.3,2.4-.9-.3-1.7-.5-2.3-.5s-1.7.3-2.5.9c0,0,0,0,0,0v.2c-.5,1.2-1.1,2.6-1.4,3.9-.5,1.3-1,2.1-1.5,2.1-.5-.6.2-1.9.9-3.2.2-.9.3-1.9.3-3.2,0,0,0,0,0,0-.3,0-.6,0-1,0-.9,0-1.9.1-2.5.2,0,0,0,0,0,0l-.3.2c-.8.5-1.3.9-1.5.9s0,0,0,0c0,0,0,0,0,0,0-.1.4-1,1.4-2.2,0,0,0,0,0-.1,0,0,0,0,0,0s0,0,0,0l-7.6.3.4-1.7c0,0,.1,0,.2,0,1.6,0,2.6-.3,3.2-1,.9-.1,1.7-.2,2.4-.2s.1,0,.2,0c0,0,0,0,0,0,0,0,0,0,0,0,.2-.7.3-1.6-.4-2.2,0-.5,0-1.5.4-1.5,0,0,.1,0,.2,0,2.6,2.1,4.5,3.2,5.7,3.2s.6,0,.8-.2c2.8-1.6,4.9-3,6.6-4.2M28.4,34.6c-1.9,1.4-4.3,2.9-6.9,4.4-.2.1-.5.2-.8.2-1.1,0-2.9-.9-5.7-3.2,0,0-.2,0-.2,0-.4,0-.4.8-.5,1.6.6.4.6,1.2.4,2.1,0,0-.1,0-.2,0-.8,0-1.6,0-2.5.2-.7.7-1.8,1-3.2,1s-.2,0-.3,0l-.5,2,7.7-.3c-.8.9-1.7,2.3-1.3,2.3,0,0,0,0,0,0,.3,0,.9-.5,1.9-1.1.8-.1,1.7-.2,2.5-.2.4,0,.7,0,1,0,0,1.2,0,2.3-.3,3.2-.8,1.4-1.5,2.7-.9,3.3.6,0,1.1-.9,1.6-2.2.3-1.4.9-2.9,1.4-4.1.8-.6,1.5-.9,2.4-.9s1.6.2,2.5.6c-.2-.9,0-2.1.2-2.5,2.1-.4,4.4-.7,6.7-.9l-.6-1.4c-.2,0-.3,0-.5,0-1.3,0-2.9-.4-4.8-.4-.1,0-.2,0-.3,0,.2-1,.6-2.2,1.1-3.6h0Z"/>
      </g>
      <g>
        <path class="cls-1" d="M8,42.5c-1.1-1.1-3.5-3.4-5.2-7.4v-5.9c-3.4-4.1-3.6-8.9-.7-14.6,2.6-3.9,6.5-6.3,11.7-7.3C17,2.8,21,.5,26.2,0c3.6,0,6.4,1.7,8.7,5.3.5,0,1,0,1.5,0,2.2,0,4,.4,5.3,1.2,0,0,.1,0,.2,0,.7.3,2.1.7,4.5,5.5.3,2.6.1,5-.5,7.1,0,0,.1.9-3.9,6.8-.4,3.4-.7,5.1-1.5,6.3-1.3,2.7-4.3,5.3-6.9,7.5l-.5-1.4c3.6-2.3,7.3-4.7,8.1-13.7,2.7-2.5,4.1-5.9,4.2-10.4-.4-3-1.6-6.2-6.7-8.1h-4.4c-2.1-2.6-4.5-5.1-7.8-5.1s-.3,0-.5,0c-4.8.4-8.7,2.8-11.8,7.2h-.1c-4,0-7.6,2.1-10.8,6.3-3.1,5.4-2.8,10,.7,13.9v6.1c1,2.7,2.5,4.7,4.5,5.9l-.5,1.8h-.1Z"/>
        <path class="cls-1" d="M26.2.1c3.6,0,6.4,1.7,8.7,5.3,0,0,0,0,0,0s0,0,0,0c.5,0,1,0,1.5,0,2.2,0,3.9.4,5.3,1.2,0,0,.1,0,.2,0,.7.2,2.1.7,4.4,5.5.3,2.6.1,5-.5,7,0,0,0,0,0,0,0,0,0,.9-3.9,6.7,0,0,0,0,0,0-.4,3.4-.7,5.1-1.5,6.3-1.2,2.7-4.2,5.2-6.8,7.4l-.5-1.2c3.6-2.3,7.3-4.8,8.1-13.7,2.7-2.5,4.1-6,4.2-10.5-.4-3-1.6-6.3-6.7-8.1,0,0,0,0,0,0s0,0,0,0h-4.3c-2.1-2.6-4.5-5.1-7.9-5.1-.2,0-.3,0-.5,0-4.8.4-8.7,2.8-11.8,7.2h0c-4.1,0-7.6,2.1-10.9,6.4C.2,20.2.5,24.8,4,28.7v6.1s0,0,0,0c1,2.7,2.6,4.6,4.5,5.9l-.4,1.7h0c-1.1-1.2-3.5-3.5-5.2-7.4v-5.9s0,0,0,0c-3.3-4.1-3.5-8.8-.6-14.5,2.6-3.9,6.5-6.3,11.7-7.3,0,0,0,0,0,0C17,2.9,21,.5,26.2.1M26.2,0c-4.9.4-9.1,2.6-12.4,7.2-5.3,1-9.2,3.4-11.7,7.3-2.7,5.4-2.9,10.3.6,14.6v5.9c1.9,4.2,4.4,6.6,5.4,7.6l.5-2c-2-1.3-3.5-3.3-4.5-5.9v-6.1c-3.7-4.2-3.5-8.8-.7-13.9,2.9-3.9,6.4-6.3,10.8-6.3s0,0,.1,0c3-4.4,6.9-6.8,11.7-7.2.2,0,.3,0,.5,0,3.3,0,5.6,2.4,7.8,5.2h4.4c4.9,1.6,6.2,4.6,6.7,7.9-.2,4.8-1.8,8.1-4.2,10.4-.8,9-4.5,11.3-8.1,13.7l.6,1.4c2.9-2.4,5.7-4.8,6.9-7.5.8-1.2,1.1-2.9,1.5-6.3,3.8-5.6,4-6.7,3.9-6.8.7-2.2.8-4.5.5-7.1-2.6-5.3-4.1-5.4-4.7-5.6-1.5-.9-3.3-1.3-5.4-1.3s-1,0-1.5,0C32.9,2.2,30.2,0,26.2,0h0Z"/>
      </g>
    </g>
  </g>
</svg>