<?xml version="1.0" encoding="UTF-8"?>
<svg id="Layer_2" data-name="Layer 2" xmlns="http://www.w3.org/2000/svg" viewBox="0 0 27.4 25.7">
  <defs>
    <style>
      .cls-1 {
        fill: #231f20;
      }
    </style>
  </defs>
  <g id="Layer_1-2" data-name="Layer 1">
    <g>
      <path class="cls-1" d="M5.5,1.3v.7H1.7v2.3h3.6v.7H1.7v2.5h4v.7H1V1.3h4.5Z"/>
      <path class="cls-1" d="M10.5,1.3l2.5,6.8h-.8l-.8-2.2h-2.9l-.8,2.2h-.7l2.5-6.8h1ZM10,2l-1.2,3.4h2.5l-1.2-3.4Z"/>
      <path class="cls-1" d="M14.9,6c0,.2,0,.5.2.7s.2.4.4.5.3.3.6.3c.2,0,.4.1.7.1s.4,0,.7,0c.2,0,.4-.1.6-.2.2-.1.3-.3.4-.4,0-.2.1-.4.1-.6s0-.4-.2-.5-.2-.3-.4-.4c-.2-.1-.4-.2-.6-.3-.2,0-.4-.1-.6-.2-.2,0-.4-.1-.5-.2-.2,0-.4-.1-.5-.2s-.3-.2-.5-.3c-.1-.1-.3-.2-.4-.4-.1-.1-.2-.3-.3-.5s0-.4,0-.6,0-.5.2-.7c.1-.2.3-.4.5-.5s.4-.3.7-.3.6-.1.9-.1.6,0,.8,0c.2,0,.4.1.6.2.2.1.3.2.4.4s.2.3.3.4c0,.1.1.3.2.5,0,.2,0,.3,0,.5h-.7c0-.2,0-.4-.2-.6,0-.2-.2-.3-.3-.4s-.3-.2-.5-.3-.4,0-.6,0-.4,0-.6,0c-.2,0-.3.1-.5.2-.1,0-.3.2-.4.3,0,.1-.1.3-.1.5s0,.4.2.5c.1.1.2.3.4.4.2.1.4.2.6.3.2,0,.4.1.7.2.2,0,.4.1.5.2.2,0,.4.1.5.2.2,0,.3.2.5.3.1,0,.3.2.4.3s.2.3.3.5c0,.2,0,.4,0,.6,0,.3,0,.6-.2.9s-.3.5-.5.6c-.2.2-.5.3-.8.4-.3,0-.6.1-1,.1s-.6,0-.9-.2-.6-.3-.8-.5c-.2-.2-.4-.4-.6-.7-.1-.3-.2-.6-.2-1h.8Z"/>
      <path class="cls-1" d="M22.9,4.8l2-3.4h.8l-2.4,4.1v2.7h-.7v-2.7l-2.4-4.1h.8l2,3.4Z"/>
      <path class="cls-1" d="M1.3,16.6c0,.5,0,1,.2,1.4s.3.7.5,1,.5.4.7.6.6.2.8.2.6,0,.8-.2.4-.2.6-.4.3-.4.4-.6.2-.5.2-.7h.7c0,.4-.2.7-.3,1s-.4.6-.6.8-.5.4-.8.5-.7.2-1.1.2-.9,0-1.3-.3-.7-.4-1-.7-.5-.7-.6-1.2-.2-1-.2-1.6,0-.6,0-.9.1-.6.3-.8.3-.5.4-.7.4-.4.6-.6.5-.3.7-.4.6-.1.9-.1.8,0,1.1.2.6.3.8.4.4.4.6.7.3.5.4.9h-.8c-.2-.5-.4-.9-.8-1.1s-.8-.4-1.3-.4-.6,0-.9.2-.5.4-.7.6-.4.6-.5.9-.2.7-.2,1.1Z"/>
      <path class="cls-1" d="M11.2,13.3l2.5,6.8h-.8l-.8-2.2h-2.9l-.8,2.2h-.7l2.5-6.8h1ZM10.7,14l-1.2,3.4h2.5l-1.2-3.4Z"/>
      <path class="cls-1" d="M20.1,15.3c0,.2,0,.3,0,.5,0,.2-.1.3-.2.5,0,.1-.2.3-.3.4-.1.1-.3.2-.4.3.2,0,.3.1.4.2s.2.2.3.3.1.3.1.4,0,.3,0,.4v1c0,.1,0,.3,0,.4,0,.1,0,.3.2.4h-.8c0,0,0-.1,0-.2,0,0,0-.1,0-.2s0-.1,0-.2c0,0,0-.1,0-.2v-1.1c0-.1,0-.3,0-.4s-.1-.2-.2-.3c0-.1-.2-.2-.4-.2-.2,0-.4,0-.6,0h-2.1v2.9h-.7v-6.8h2.8c.3,0,.6,0,.9.2.3.1.5.3.6.4.2.2.3.4.4.6,0,.2.1.5.1.7ZM16,16.6h2.1c.2,0,.3,0,.5-.1.2,0,.3-.2.4-.3s.2-.3.3-.4c0-.2.1-.3.1-.5s0-.4-.1-.5c0-.2-.2-.3-.3-.4-.1-.1-.3-.2-.4-.3-.2,0-.3,0-.5,0h-2.1v2.6Z"/>
      <path class="cls-1" d="M26.5,13.3v.7h-3.8v2.3h3.6v.7h-3.6v2.5h4v.7h-4.7v-6.8h4.5Z"/>
    </g>
  </g>
</svg>