<?xml version="1.0" encoding="UTF-8"?>
<svg id="Layer_2" data-name="Layer 2" xmlns="http://www.w3.org/2000/svg" viewBox="0 0 81.9 51.2">
  <defs>
    <style>
      .cls-1 {
        fill: none;
        stroke: #231f20;
        stroke-miterlimit: 10;
        stroke-width: .5px;
      }
    </style>
  </defs>
  <g id="Layer_1-2" data-name="Layer 1">
    <line class="cls-1" x1="0" y1="51" x2="81.9" y2="50.7"/>
    <path class="cls-1" d="M55.4,50.6c0-3.2,0-5.9.7-7.6,1.1-1.5,1.9-3.1,2.4-4.7,1.1-3.4,2.2-5.1,3.3-4.1v4.6c.9,0,1.7-.6,2.3-1.6l-.3-6.6c.4-1.5,1.1-2.4,2.1-2.3,1.6,2.4,2.7,6.3,2.8,12.6-2.2,2-4.8,3.5-7.9,4.6l2.2,5.2-7.6-.2Z"/>
    <path class="cls-1" d="M26.1,50.4c0-3.2-1.6-5.1-2.4-6.7-1.1-1.5-2.9-3.2-3.5-4.9-1.3-3.4-3.9-5.5-5-4.5l1.1,4.5c-1,0-2.2-.7-2.9-1.6l-1.3-5.3c-.5-1.5-2-3.4-3-3.3-1.1,2.4,0,5.2.7,11.8,2.4,2.3,6.1,4.6,9.2,5.3l.2,4.6h6.9Z"/>
    <path class="cls-1" d="M59.3,25.1c1.3,9.9-6.4,19.5-19.7,18.9-13.1-.6-24.2-10.4-24.6-19.8-.5-10.6,6.2-18.7,19.6-19.3,11.2-.5,23.3,9.7,24.7,20.2Z"/>
    <path class="cls-1" d="M34.6,4.9c-7.6,11.7-5.6,24.8,5,39.1"/>
    <path class="cls-1" d="M34.9,4.9c10.7,12.5,12.6,27.2,4.5,39.1"/>
    <line class="cls-1" x1="15" y1="24.2" x2="59.1" y2="24.5"/>
    <path class="cls-1" d="M30,5.5c-15,7.7-11.4,28.5,4,37.8"/>
    <path class="cls-1" d="M40.4,5.6c18.3,8.7,17.9,31.4,3.9,38.2"/>
    <path class="cls-1" d="M18.9,11.5c-2-.7-3.6-2.1-4.5-4.2-.4-1.9-.4-3.4-.2-4.7.8-1.8,1.3-2.2,1.7-2.3,3.9,2.2,6,5.3,3,11.2Z"/>
    <path class="cls-1" d="M18.8,11.6c-1.4,1.4-3,2.5-5,3.4-3,.5-5.6,0-7.9-1.6,1.4-1.6,2.9-3.1,5.1-3.6,1.5-.9,4.4,0,7.8,1.8Z"/>
  </g>
</svg>