<?xml version="1.0" encoding="UTF-8"?>
<svg id="Layer_2" data-name="Layer 2" xmlns="http://www.w3.org/2000/svg" xmlns:xlink="http://www.w3.org/1999/xlink" viewBox="0 0 63.8 73.4">
  <defs>
    <style>
      .cls-1 {
        fill: none;
        filter: url(#drop-shadow-2);
      }

      .cls-1, .cls-2 {
        stroke: #231f20;
        stroke-linecap: round;
        stroke-linejoin: round;
      }

      .cls-2 {
        fill: #231f20;
        filter: url(#drop-shadow-1);
        stroke-width: 0px;
      }
    </style>
    <filter id="drop-shadow-1" x="7.2" y="18.5" width="48.5" height="55" filterUnits="userSpaceOnUse">
      <feOffset dx="7" dy="7"/>
      <feGaussianBlur result="blur" stdDeviation="5"/>
      <feFlood flood-color="#231f20" flood-opacity=".8"/>
      <feComposite in2="blur" operator="in"/>
      <feComposite in="SourceGraphic"/>
    </filter>
    <filter id="drop-shadow-2" x="0" y="0" width="63.8" height="73.4" filterUnits="userSpaceOnUse">
      <feOffset dx="7" dy="7"/>
      <feGaussianBlur result="blur-2" stdDeviation="5"/>
      <feFlood flood-color="#231f20" flood-opacity=".8"/>
      <feComposite in2="blur-2" operator="in"/>
      <feComposite in="SourceGraphic"/>
    </filter>
  </defs>
  <g id="Layer_1-2" data-name="Layer 1">
    <g>
      <path class="cls-2" d="M25.3,27.2c-.6-.7-1.7-.7-2.2,0-7,9.6-7.9,12.9-7.9,14.8.1,5.7,3.1,8.4,8.5,9.2s.6,0,.9,0c4.7-.2,7.2-2.1,8.5-5s.3-.7.3-1.1c.2-1.6,0-3.2-.7-4.9s-.3-.6-.5-.9l-2.3-3.4c-.1-.4.5-.6.4-1.2-.4-.1-.5.3-.9.7s-.4.7-.4,1.1c0,.9.1,2,.1,3.1.4-.1.3.1.4.5-1.1,2.5-1.6,2.2-2.6,2.4-2.4,0-3.3-1.2-3-3.8s0-.2,0-.3l1.8-4.9c.4-1.1.4-2.2,0-3.3s-.4-1.5-.5-2.3,0-.4-.2-.6,0,0,0-.1Z"/>
      <path class="cls-1" d="M25.8,8.3c.9-.4,2,.2,2,1.2s.2,1.2-.1,2c-.8,2.5,1.4,4.9,2.7,8.1s.2.3.3.5c10.1,9.8,11,14.8,11,19.4s0,.2,0,.3c-1.4,6.4-6.7,8.9-12.7,10.9s-.1,0-.2,0c-2.9.7-6.1.6-9.8-.3s-.3,0-.4-.2c-4.1-2.3-7.3-5.2-9.4-8.8s-.1-.3-.2-.4c-1.9-7.8-1.3-13.6,1.5-17.6,2.6-4.1,5.4-7.6,8.6-10.1.3-.2.4-.5.5-.9s.3-.7.6-.9c2.6-1.6,4.3-2.6,5.4-3.2Z"/>
    </g>
  </g>
</svg>