<?xml version="1.0" encoding="UTF-8"?>
<svg id="Layer_2" data-name="Layer 2" xmlns="http://www.w3.org/2000/svg" viewBox="0 0 98.4 45.8">
  <defs>
    <style>
      .cls-1 {
        fill: none;
      }

      .cls-1, .cls-2 {
        stroke: #231f20;
        stroke-miterlimit: 10;
      }

      .cls-2 {
        fill: #231f20;
        stroke-width: .2px;
      }
    </style>
  </defs>
  <g id="Layer_1-2" data-name="Layer 1">
    <g>
      <path class="cls-2" d="M33.7,13.1c-1,1.3,9.7,12,17,14.4-2.3.6-4.5.6-6.6.3v.9c2.8.9,5.5.6,7.5-.6l3.4.9c-2.2,1.3-4.4,2.2-6.4,2.3l.2,1c2.8.2,5.2-.8,7.3-3l14.4,1c.4,0,.4,1.4,0,1.4h-4.7c-2.9,3.1-6.7,4.9-12,4.4-3,0-6.5-.9-10.1-2.5-4.1-2.2-7.6-5.1-9.9-9.3-1.7-2.2-3.3-5.8-4.8-9.7-1.4-7-2.3-13.2.1-14.4,1.8.4,5.8,5.3,7.8,8,2.9,2.7,5.9,5,9,6.7,3.4,1.3,6.6,2.6,8.7,3.6l10.1,3.4c2.1.4,3.2,1.5,2.8,3.9,0,2.5-1,3.6-3.1,3.2-2.8,0-5.8-.4-9.3-1.2-2.6-.5-5.3-1.4-8-3.1-3-1.7-5.8-3.5-7.9-5.8-2.2-3-4.5-6.2-5.6-5.6Z"/>
      <polygon class="cls-1" points="81.8 20.3 97.4 45.3 .9 42.8 15.6 18.3 81.8 20.3"/>
    </g>
  </g>
</svg>