<?xml version="1.0" encoding="UTF-8"?>
<svg id="Layer_2" data-name="Layer 2" xmlns="http://www.w3.org/2000/svg" viewBox="0 0 45.7 44.4">
  <defs>
    <style>
      .cls-1 {
        stroke-width: .2px;
      }

      .cls-1, .cls-2 {
        fill: #231f20;
        stroke: #231f20;
        stroke-miterlimit: 10;
      }
    </style>
  </defs>
  <g id="Layer_1-2" data-name="Layer 1">
    <path class="cls-1" d="M38.5,32.3l-2.4-.4c0-3-.5-6.1-2.3-8.9-.9-1.8-4.5-3-8.8-5-3.7-3.2-5.6-6.8-5.6-10.8h-3.1c0,.1,4.4-6.9,4.4-6.9l4.5,6.8h-2.7c-.6.2-.8.5-.8.9.8,4.2,3.4,7.3,6.8,9.1,3.2.2,5.6,2,7.4,4.7,2.4,3.2,2.9,6.7,2.5,10.5Z"/>
    <path class="cls-1" d="M22.4,43l-2.4-.4c0-3-.5-6.1-2.3-8.9-.9-1.8-4.5-3-8.8-5-3.7-3.2-5.6-6.8-5.6-10.8H.2c0,.1,4.4-6.9,4.4-6.9l4.5,6.8h-2.7c-.6.2-.8.5-.8.9.8,4.2,3.4,7.3,6.8,9.1,3.2.2,5.6,2,7.4,4.7,2.4,3.2,2.9,6.7,2.5,10.5Z"/>
    <path class="cls-2" d="M7.1,43.9c1-.2,38.3-30.1,38.3-30.1"/>
  </g>
</svg>