<?xml version="1.0" encoding="UTF-8"?>
<svg id="Layer_2" data-name="Layer 2" xmlns="http://www.w3.org/2000/svg" viewBox="0 0 71.2 40">
  <defs>
    <style>
      .cls-1 {
        stroke-width: .2px;
      }

      .cls-1, .cls-2 {
        fill: #231f20;
        stroke: #231f20;
        stroke-miterlimit: 10;
      }
    </style>
  </defs>
  <g id="Layer_1-2" data-name="Layer 1">
    <path class="cls-2" d="M36.5,30.8l-1.7,4.9c-.7,2.6.5,3.5,2.2,3.8,1.5,0,2.3-.8,2.4-2.5-.3-1.4-1.7-3.8-2.9-6.2Z"/>
    <path class="cls-2" d="M50.8,30.7l-1.7,4.9c-.7,2.6.5,3.5,2.2,3.8,1.5,0,2.3-.8,2.4-2.5-.3-1.4-1.7-3.8-2.9-6.2Z"/>
    <path class="cls-2" d="M65.1,30.4l-1.7,4.9c-.7,2.6.5,3.5,2.2,3.8,1.5,0,2.3-.8,2.4-2.5-.3-1.4-1.7-3.8-2.9-6.2Z"/>
    <line class="cls-2" x1="0" y1="27.6" x2="71.2" y2="26.7"/>
    <path class="cls-1" d="M42.8,33.4l-1.1-1.1c-.1-.1-.1-.3,0-.4,1.5-2.2,2.8-4.7,2.9-7.7.3-1.9-1.8-4.6-3.9-8.5s0,0,0-.1c-1-4.3-.5-7.9,1.4-10.8s0-.3,0-.4l-2.1-1.4L46.4.2c.2,0,.5,0,.5.3l-.2,7-2-1.5c-.6-.2-.9,0-1.1.3-1.7,3.5-1.3,7.3.2,10.5s0,0,0,.1c2.2,1.9,3.1,4.5,3,7.5,0,3.5-1.3,6.4-3.5,9s-.4.2-.5,0Z"/>
    <path class="cls-1" d="M55.8,33.2h0c-.4-.5-.4-1.1,0-1.5,1.4-2,2.6-4.3,2.8-7.1.4-1.8-1.6-4.7-3.6-8.6s0,0,0-.1c-.8-4.3-.2-7.8,1.8-10.7s0-.4,0-.5l-2-1.4,6.6-2.5c.3-.1.6.1.6.4l-.5,6.9-1.9-1.6c-.6-.2-.9,0-1.1.3-1.8,3.5-1.6,7.2-.2,10.5s0,.1,0,.1c2.1,2,2.9,4.6,2.7,7.6,0,3.2-1.3,5.9-3.3,8.2s-1.2.5-1.7,0Z"/>
  </g>
</svg>