<?xml version="1.0" encoding="UTF-8"?>
<svg id="Layer_2" data-name="Layer 2" xmlns="http://www.w3.org/2000/svg" viewBox="0 0 58.5 21.2">
  <defs>
    <style>
      .cls-1 {
        fill: #231f20;
        stroke: #231f20;
        stroke-linecap: round;
        stroke-linejoin: round;
        stroke-width: .2px;
      }
    </style>
  </defs>
  <g id="Layer_1-2" data-name="Layer 1">
    <path class="cls-1" d="M58.4,10.6c-.1.2-7.3-4-14-10.5l1.9,5c1.4,3.1-.4,3.6-3.3,3.5-10.1.5-19.7.4-28.6-.3-1.8.1-2.4-.6-1.9-2,.5-1.5,1.8-3.8,3.1-6.2C11.3,4.3,6,7.9.1,10.8c4.3,1.6,8.8,5.5,14,10.2-1.3-2.5-2.4-5.4-2.1-7.3.9-.5,2-.8,3.3-1,7.2-.4,15.6-.4,24.6-.3,2.7.2,5,.5,6.3,1.1.2,1.3-1.6,4.2-3.5,7.6.1-.7,14.6-10.8,15.6-10.5"/>
  </g>
</svg>