<?xml version="1.0" encoding="UTF-8"?>
<svg id="Layer_2" data-name="Layer 2" xmlns="http://www.w3.org/2000/svg" viewBox="0 0 86.1 53.1">
  <defs>
    <style>
      .cls-1, .cls-2, .cls-3 {
        fill: #231f20;
      }

      .cls-2 {
        stroke-width: .2px;
      }

      .cls-2, .cls-3 {
        stroke: #231f20;
        stroke-miterlimit: 10;
      }

      .cls-3 {
        stroke-width: .5px;
      }
    </style>
  </defs>
  <g id="Layer_1-2" data-name="Layer 1">
    <polygon class="cls-2" points="13.1 39.7 15.5 37.1 32.2 51.7 50.4 30.9 47 28.4 57.5 25.6 56.9 35.7 53.6 33.1 36.2 52.5 28.1 52.6 13.1 39.7"/>
    <polyline class="cls-2" points="32.4 39.6 34.6 37.8 50.7 51.7 72.4 27.3 69 24.9 79.2 21.7 78.5 31.8 74.7 29.6 54.7 52.1 46.4 52.4 32.4 39.6"/>
    <g>
      <polygon class="cls-1" points="6.6 4.7 8.4 3.5 12.3 7.3 10.8 8.6 6.6 4.7"/>
      <path class="cls-1" d="M8.4,3.6l3.8,3.6-1.4,1.2-4-3.7,1.6-1.1M8.4,3.3l-2,1.4,4.4,4.1,1.7-1.5-4.1-4h0Z"/>
    </g>
    <g>
      <polygon class="cls-1" points="16.4 5.6 16.1 .2 18.1 .1 18.6 5.7 16.4 5.6"/>
      <path class="cls-1" d="M18,.3l.4,5.3h-1.9c0-.1-.3-5.3-.3-5.3h1.8M18.3,0h-2.3c0,0,.3,5.7.3,5.7l2.4.2-.5-5.8h0Z"/>
    </g>
    <g>
      <polygon class="cls-1" points="23.2 7.1 27 3.6 28.4 4.9 24.8 8.6 23.2 7.1"/>
      <path class="cls-1" d="M27,3.8l1.2,1.1-3.4,3.5-1.4-1.3,3.6-3.3M27,3.4l-4,3.7,1.7,1.6,3.8-3.8-1.6-1.5h0Z"/>
    </g>
    <g>
      <polygon class="cls-1" points="26.9 15.1 26.9 12.8 32.8 13 32.8 15.2 26.9 15.1"/>
      <path class="cls-1" d="M27,13l5.7.2v1.9h-5.7c0,0,0-2.1,0-2.1M26.7,12.7v2.5c0,0,6.2.1,6.2.1v-2.4l-6.2-.2h0Z"/>
    </g>
    <g>
      <path class="cls-1" d="M24.4,20.5c.2-.2.7-.8.9-1.1l4.2,3.7-1.1,1.2-4.1-3.7Z"/>
      <path class="cls-1" d="M25.4,19.6l4.1,3.5-.9,1-3.9-3.6c.3-.3.6-.7.8-.9M25.4,19.3c-.1.1-1.1,1.3-1.1,1.3l4.3,3.9,1.3-1.3-4.4-3.8h0Z"/>
    </g>
    <g>
      <polygon class="cls-1" points="18 27.6 18 22.5 19.7 22.4 19.7 27.6 18 27.6"/>
      <path class="cls-1" d="M19.6,22.5v5h-1.4v-4.9h1.4M19.8,22.2h-1.9v5.5h1.9v-5.5h0Z"/>
    </g>
    <g>
      <path class="cls-1" d="M8.1,23l3.5-3.5,1.3,1.3c-.3.3-2.2,2.2-3.5,3.5l-1.3-1.3Z"/>
      <path class="cls-1" d="M11.6,19.6l1.2,1.1c-.5.5-2.1,2.2-3.3,3.4l-1.1-1.1,3.3-3.3M11.6,19.3l-3.7,3.7,1.5,1.5s3.7-3.6,3.7-3.7l-1.5-1.5h0Z"/>
    </g>
    <g>
      <polygon class="cls-1" points="3.3 15.5 3.3 13.1 9.5 13.1 9.5 15.5 3.3 15.5"/>
      <path class="cls-1" d="M9.4,13.2v2.2s-5.9,0-5.9,0v-2.2h5.9M9.6,12.9H3.2v2.7h6.5v-2.7h0Z"/>
    </g>
    <circle class="cls-2" cx="18.3" cy="14" r="6.8"/>
    <line class="cls-3" x1="0" y1="52.9" x2="86.1" y2="52.1"/>
  </g>
</svg>