<?xml version="1.0" encoding="UTF-8"?>
<svg id="Layer_2" data-name="Layer 2" xmlns="http://www.w3.org/2000/svg" viewBox="0 0 58.7 52">
  <defs>
    <style>
      .cls-1, .cls-2 {
        fill: none;
      }

      .cls-1, .cls-2, .cls-3 {
        stroke: #231f20;
        stroke-miterlimit: 10;
      }

      .cls-4, .cls-3 {
        fill: #231f20;
      }

      .cls-2 {
        stroke-width: .2px;
      }
    </style>
  </defs>
  <g id="Layer_1-2" data-name="Layer 1">
    <g>
      <line class="cls-3" x1="0" y1="51.5" x2="58.7" y2="50.2"/>
      <polyline class="cls-1" points="46.9 36.9 38.5 50.2 24 39.9"/>
      <polyline class="cls-1" points="36.7 37.4 27.8 50.6 12.6 39.8"/>
      <g>
        <path class="cls-4" d="M19.8,32.7c.3-.7.2-2.3,0-4-.5-1.2-1.3-2-2.1-2.3-1.3,0-2.1,1.4-2.7,3.2.7,1,1.3,1.2,2.1,2.3.9.6,1.8.9,2.7.8ZM19.8,25.6c2.3,2.7,2.6,7.9,1.6,11-2.7-.9-6.3-3.5-7.8-5.9-1-4.7,2.6-6.6,6.2-5.1Z"/>
        <g>
          <path class="cls-2" d="M21.4,36.6c1-3.1.7-8.3-1.6-11-3.6-1.5-7.2.3-6.2,5.1,1.5,2.4,5.1,5,7.8,5.9Z"/>
          <path class="cls-2" d="M19.8,32.7c.3-.7.2-2.3,0-4-.5-1.2-1.3-2-2.1-2.3-1.3,0-2.1,1.4-2.7,3.2.7,1,1.3,1.2,2.1,2.3.9.6,1.8.9,2.7.8Z"/>
        </g>
      </g>
      <g>
        <path class="cls-4" d="M4.4,28c3.2-1.5,5.8-1.2,6.5,5,1,2.2,1.6,4.2.6,5.2-1.2.3-2.3-.3-3.3-1.6-5.4-2.4-7.9-5.1-3.8-8.6ZM9.3,33.1c.2-3.7-1.6-4.4-4.4-3.8-.6,3.3.2,4.2,1.6,4.7l1.4.2c.4.8,1.1,1.1,1.9,1.3.2-.5,0-1.3-.5-2.4Z"/>
        <g>
          <path class="cls-2" d="M9.9,35.4c.2-.5,0-1.3-.5-2.4.2-3.7-1.6-4.4-4.4-3.8-.6,3.3.2,4.2,1.6,4.7l1.4.2c.4.8,1.1,1.1,1.9,1.3Z"/>
          <path class="cls-2" d="M11.5,38.2c.9-1,.4-3-.6-5.2-.7-6.2-3.3-6.5-6.5-5-4,3.4-1.5,6.2,3.8,8.6,1,1.4,2.1,1.9,3.3,1.6Z"/>
        </g>
      </g>
      <path class="cls-1" d="M43,1.4c-2,5.3-4.1,10.1-6.3,13.9-1.5,2.2-2.7,4.8-3.8,7.7-.4,1.4-.4,3-.2,4.8.9,3.2,2.6,5.4,5.1,6.7,3,.8,5.8.4,8.4-1,1.8-1.8,3.2-3.9,4.5-6.4,0-2.4-.4-4.8-1-7.2L43,1.4Z"/>
      <path class="cls-1" d="M47,28.2c-.8,1.7-2.5,3-4,3.6"/>
    </g>
  </g>
</svg>